# Blender v2.79 (sub 0) OBJ File: ''
# www.blender.org
mtllib test2.mtl
o Cube_Cube.001
v 0.677699 -1.409498 0.699579
v -0.060242 0.115389 1.762670
v -0.965271 -1.409498 -0.440882
v -1.703211 0.115389 0.622209
v 1.547236 -0.115389 -0.553092
v 0.809296 1.409498 0.509998
v -0.095733 -0.115389 -1.693553
v -0.833674 1.409498 -0.630463
vn -0.4348 -0.6471 0.6263
vn -0.8215 0.0000 -0.5702
vn 0.4348 0.6471 -0.6263
vn 0.8215 -0.0000 0.5702
vn 0.3690 -0.7624 -0.5315
vn -0.3690 0.7624 0.5315
usemtl None
s off
f 1//1 2//1 4//1 3//1
f 3//2 4//2 8//2 7//2
f 7//3 8//3 6//3 5//3
f 5//4 6//4 2//4 1//4
f 3//5 7//5 5//5 1//5
f 8//6 4//6 2//6 6//6
